<svg width="101" height="100" viewBox="0 0 101 100" fill="none" xmlns="http://www.w3.org/2000/svg">
<path fill-rule="evenodd" clip-rule="evenodd" d="M90.5 25V65C90.5 67.6522 89.4464 70.1957 87.5711 72.0711C85.6957 73.9464 83.1522 75 80.5 75H55.5L30.5 95V75H20.5C17.8478 75 15.3043 73.9464 13.4289 72.0711C11.5536 70.1957 10.5 67.6522 10.5 65V25C10.5 22.3478 11.5536 19.8043 13.4289 17.9289C15.3043 16.0536 17.8478 15 20.5 15H80.5C83.1522 15 85.6957 16.0536 87.5711 17.9289C89.4464 19.8043 90.5 22.3478 90.5 25ZM35.5 40H25.5V50H35.5V40ZM45.5 40H55.5V50H45.5V40ZM75.5 40H65.5V50H75.5V40Z" fill="#FF3838"/>
</svg>
