<svg width="101" height="100" viewBox="0 0 101 100" fill="none" xmlns="http://www.w3.org/2000/svg">
<path fill-rule="evenodd" clip-rule="evenodd" d="M71.7151 28.7848C67.7098 24.782 62.6534 21.9944 57.1305 20.7444C51.6076 19.4944 45.8437 19.8331 40.5051 21.7212C35.1666 23.6093 30.4714 26.9697 26.9625 31.4141C23.4535 35.8584 21.274 41.2051 20.676 46.836C20.0779 52.467 21.0858 58.1522 23.583 63.2344C26.0802 68.3166 29.9648 72.5883 34.7877 75.5556C39.6106 78.5229 45.1748 80.0646 50.8371 80.0025C56.4993 79.9405 62.0284 78.2771 66.7851 75.2048C67.3357 74.8273 67.9564 74.5638 68.6105 74.43C69.2645 74.2962 69.9388 74.2948 70.5935 74.4258C71.2481 74.5567 71.8699 74.8175 72.4222 75.1927C72.9745 75.5678 73.446 76.0498 73.809 76.6102C74.172 77.1705 74.419 77.7979 74.5357 78.4552C74.6523 79.1126 74.6361 79.7867 74.488 80.4377C74.3399 81.0887 74.0629 81.7034 73.6734 82.2457C73.2839 82.7879 72.7897 83.2466 72.2201 83.5948C64.7536 88.4229 55.8914 90.6256 47.0334 89.855C38.1754 89.0844 29.8266 85.3844 23.3061 79.3396C16.7855 73.2947 12.4649 65.2496 11.0267 56.4753C9.58861 47.7009 11.115 38.6975 15.3647 30.8873C19.6144 23.0772 26.3452 16.9057 34.4937 13.3477C42.6422 9.78969 51.7439 9.04809 60.361 11.24C68.978 13.432 76.6191 18.4325 82.0771 25.4517C87.5351 32.4708 90.4988 41.1084 90.5001 49.9998C90.501 52.7859 89.7259 55.5172 88.2618 57.8876C86.7976 60.258 84.7023 62.1737 82.2105 63.4201C79.7187 64.6665 76.9291 65.1943 74.1542 64.9443C71.3793 64.6943 68.7289 63.6765 66.5001 62.0048C63.6508 65.8039 59.5427 68.4651 54.9108 69.5124C50.2789 70.5597 45.4256 69.9247 41.219 67.721C37.0125 65.5173 33.7274 61.8887 31.9514 57.4846C30.1754 53.0804 30.0245 48.1879 31.5256 43.6826C33.0267 39.1773 36.082 35.3532 40.1447 32.8944C44.2074 30.4356 49.0124 29.5027 53.7 30.2625C58.3876 31.0223 62.6519 33.4252 65.73 37.0414C68.808 40.6576 70.4989 45.251 70.5001 49.9998C70.5001 51.3259 71.0268 52.5977 71.9645 53.5354C72.9022 54.473 74.174 54.9998 75.5001 54.9998C76.8261 54.9998 78.0979 54.473 79.0356 53.5354C79.9733 52.5977 80.5001 51.3259 80.5001 49.9998C80.5001 42.3148 77.5701 34.6498 71.7151 28.7848ZM60.5001 49.9998C60.5001 47.3477 59.4465 44.8041 57.5711 42.9288C55.6958 41.0534 53.1522 39.9998 50.5001 39.9998C47.8479 39.9998 45.3044 41.0534 43.429 42.9288C41.5536 44.8041 40.5001 47.3477 40.5001 49.9998C40.5001 52.652 41.5536 55.1955 43.429 57.0709C45.3044 58.9463 47.8479 59.9998 50.5001 59.9998C53.1522 59.9998 55.6958 58.9463 57.5711 57.0709C59.4465 55.1955 60.5001 52.652 60.5001 49.9998Z" fill="#FF3838"/>
</svg>
