<svg width="101" height="100" viewBox="0 0 101 100" fill="none" xmlns="http://www.w3.org/2000/svg">
<path fill-rule="evenodd" clip-rule="evenodd" d="M10.5 25C10.5 22.3478 11.5536 19.8043 13.4289 17.9289C15.3043 16.0536 17.8478 15 20.5 15H80.5C83.1522 15 85.6957 16.0536 87.5711 17.9289C89.4464 19.8043 90.5 22.3478 90.5 25V75C90.5 77.6522 89.4464 80.1957 87.5711 82.0711C85.6957 83.9464 83.1522 85 80.5 85H20.5C17.8478 85 15.3043 83.9464 13.4289 82.0711C11.5536 80.1957 10.5 77.6522 10.5 75V25ZM26.965 31.465C27.9026 30.5276 29.1742 30.0011 30.5 30.0011C31.8258 30.0011 33.0974 30.5276 34.035 31.465L49.035 46.465C49.9724 47.4026 50.4989 48.6742 50.4989 50C50.4989 51.3258 49.9724 52.5974 49.035 53.535L34.035 68.535C33.092 69.4458 31.829 69.9498 30.518 69.9384C29.207 69.927 27.9529 69.4011 27.0259 68.4741C26.0989 67.5471 25.573 66.293 25.5616 64.982C25.5502 63.671 26.0542 62.408 26.965 61.465L38.43 50L26.965 38.535C26.0276 37.5974 25.5011 36.3258 25.5011 35C25.5011 33.6742 26.0276 32.4026 26.965 31.465ZM55.5 60C54.1739 60 52.9021 60.5268 51.9645 61.4645C51.0268 62.4021 50.5 63.6739 50.5 65C50.5 66.3261 51.0268 67.5979 51.9645 68.5355C52.9021 69.4732 54.1739 70 55.5 70H70.5C71.8261 70 73.0979 69.4732 74.0355 68.5355C74.9732 67.5979 75.5 66.3261 75.5 65C75.5 63.6739 74.9732 62.4021 74.0355 61.4645C73.0979 60.5268 71.8261 60 70.5 60H55.5Z" fill="#FF3838"/>
</svg>
